<?xml version="1.0"?>
<svg version="1.1" xmlns="http://www.w3.org/2000/svg" width="400" height="200" style="border: dashed 2px #aaa"><path fill="#0dcaf0" d="M17.978515625,88.0859375q0-2.294921875,0.1220703125-4.541015625t0.4150390625-4.443359375q0.1953125-1.123046875,1.7333984375-1.611328125t2.5634765625-0.48828125l1.171875,0.09765625q1.416015625,0.1953125,2.8564453125-0.1953125t2.8564453125-0.390625q3.3203125,0,7.421875,0.732421875t7.6904296875,2.490234375t6.0302734375,4.6142578125t2.44140625,7.0556640625t-2.5390625,7.8369140625t-6.396484375,6.396484375t-8.30078125,4.3212890625t-8.154296875,1.5625q0.390625,9.423828125,1.0986328125,18.701171875t2.4169921875,18.5546875l0.09765625,0.634765625q0,0.68359375-0.6103515625,1.123046875t-1.4404296875,0.7080078125t-1.6845703125,0.3662109375t-1.3916015625,0.09765625q-1.220703125,0-2.9541015625-0.4638671875t-2.1240234375-1.8310546875q-1.123046875-4.296875-1.7578125-9.4482421875t-0.927734375-10.7666015625t-0.4150390625-11.3037109375t-0.1220703125-11.1083984375l0-10.986328125q0-1.806640625-0.048828125-3.759765625t-0.048828125-3.955078125z M27.20703125,80.17578125q0,6.689453125,0.146484375,13.3544921875t0.341796875,13.3544921875q2.880859375-0.5859375,5.8837890625-2.0751953125t5.419921875-3.5400390625t3.90625-4.6630859375t1.4892578125-5.4931640625q0-2.587890625-1.2939453125-4.638671875t-3.3447265625-3.515625q-2.001953125-1.416015625-4.541015625-2.197265625q-2.24609375-0.68359375-4.39453125-0.68359375l-0.537109375,0z M63.37255859375,108.3984375q0-3.22265625,0.2685546875-7.0556640625t0.9521484375-7.6904296875t2.05078125-7.4462890625t3.515625-6.396484375t5.2490234375-4.4677734375t7.3974609375-1.66015625q3.41796875,0,6.298828125,1.318359375t5.029296875,3.564453125t3.3447265625,5.2490234375t1.1962890625,6.2744140625q0,0.87890625-1.1962890625,1.0986328125t-1.6845703125,0.2197265625q-0.87890625,0-1.6845703125-0.146484375t-1.1962890625-1.171875q-0.68359375-1.904296875-1.4404296875-4.00390625t-1.85546875-3.8330078125t-2.7099609375-2.8564453125q-1.46484375-0.9765625-3.7109375-0.9765625l-0.390625,0q-4.1015625,0.09765625-6.103515625,2.9296875t-2.7587890625,6.884765625t-0.7568359375,8.59375l0,8.056640625q0,2.001953125,0.146484375,5.810546875t0.7080078125,8.30078125t1.46484375,9.1552734375t2.44140625,8.49609375t3.6865234375,6.25t5.17578125,2.4169921875q2.685546875,0,4.6875-1.85546875t3.4423828125-4.7607421875t2.44140625-6.494140625t1.66015625-7.2021484375t1.0009765625-6.7138671875t0.537109375-5.1025390625q-0.537109375-0.048828125-1.025390625-0.048828125q-2.294921875,0-4.4921875,0.732421875q-2.783203125,0.830078125-5.56640625,0.830078125q-0.390625,0-1.0498046875-0.048828125t-1.2451171875-0.244140625t-1.0498046875-0.5615234375t-0.4638671875-0.9521484375q0-1.123046875,2.4658203125-1.904296875t5.615234375-1.3427734375t6.0791015625-0.8056640625t3.857421875-0.244140625q0.48828125,0,1.3916015625,0.09765625t1.806640625,0.341796875t1.5380859375,0.7080078125t0.634765625,1.1474609375q0,0.5859375-0.439453125,1.0498046875t-1.0986328125,0.7080078125t-1.3427734375,0.341796875t-1.07421875,0.09765625q0.048828125,1.123046875,0.048828125,2.294921875q0,2.63671875-0.146484375,5.615234375q-0.244140625,4.296875-0.9765625,8.59375t-2.24609375,8.349609375t-3.857421875,7.1533203125t-5.7861328125,5.0048828125t-8.1787109375,1.904296875q-5.17578125,0-8.740234375-2.197265625t-5.810546875-5.859375t-3.4912109375-8.30078125t-1.7822265625-9.4970703125t-0.6591796875-9.4482421875t-0.1220703125-8.30078125z M119.0693359375,140.72265625q0-1.708984375,1.171875-2.1728515625t2.5390625-0.4638671875q2.392578125,0,4.052734375,2.1484375t3.1494140625,4.7119140625t2.9541015625,4.7119140625t3.466796875,2.1484375q1.513671875,0,2.7587890625-0.7568359375t2.1484375-1.904296875t1.3916015625-2.587890625t0.48828125-2.8564453125q0-3.7109375-1.4892578125-7.666015625t-3.80859375-8.154296875t-4.9072265625-8.59375t-4.8828125-8.935546875t-3.80859375-9.2529296875t-1.513671875-9.4970703125q0-7.177734375,4.296875-11.1328125t11.328125-3.955078125q2.392578125,0,4.833984375,0.68359375t4.4921875,2.05078125t3.3447265625,3.369140625t1.2939453125,4.6875q0,0.87890625-1.2939453125,1.1474609375t-1.8798828125,0.2685546875q-0.87890625,0-1.904296875-0.2197265625t-1.318359375-1.1962890625t-0.830078125-2.24609375t-1.3427734375-2.3681640625t-1.904296875-1.904296875t-2.4169921875-0.8056640625q-2.197265625,0-3.7353515625,0.9033203125t-2.490234375,2.4169921875t-1.416015625,3.3935546875t-0.4638671875,3.8818359375q0,4.6875,1.611328125,9.4482421875t4.00390625,9.47265625t5.2001953125,9.3017578125t5.2001953125,8.935546875t4.00390625,8.49609375t1.611328125,7.861328125q0,3.3203125-1.5625,5.615234375t-3.955078125,3.7353515625t-5.2978515625,2.099609375t-5.6884765625,0.6591796875q-2.978515625,0-6.103515625-1.1962890625t-5.615234375-3.2958984375t-4.1015625-4.9072265625t-1.611328125-6.0791015625z M162.99853515625,120.8984375q0-1.416015625,0.8056640625-1.85546875t2.0263671875-0.439453125q2.001953125,0,3.0517578125,0.7568359375t1.0498046875,2.6611328125q0,2.294921875,0.341796875,5.7373046875t1.0009765625,6.689453125t1.5625,5.5908203125t1.8798828125,2.34375q1.806640625,0,3.1982421875-2.783203125t2.44140625-6.8359375t1.806640625-8.7158203125t1.0498046875-8.3251953125q0.1953125-2.001953125,0.9521484375-2.9052734375t2.7587890625-0.9033203125q2.294921875,0,3.3447265625,1.904296875t1.3427734375,4.6875q0.244140625,2.392578125,0.244140625,4.98046875l0,0.830078125l0,1.953125q0,1.85546875,0.048828125,3.3203125l1.416015625,29.931640625l0.1953125,4.98046875q0.09765625,0.68359375,0.146484375,1.2939453125t0.048828125,1.2939453125q0,2.783203125-1.1962890625,3.5888671875t-3.8818359375,0.8056640625q-0.5859375,0-1.4892578125-0.09765625t-1.7578125-0.390625t-1.46484375-0.8056640625t-0.6103515625-1.2939453125l0.1953125-0.48828125q0.244140625-2.9296875,0.244140625-6.15234375l0-1.025390625q-0.048828125-3.80859375-0.244140625-7.71484375t-0.439453125-7.8125t-0.244140625-7.51953125q-0.68359375,1.513671875-1.5869140625,3.125t-2.099609375,2.9052734375t-2.7099609375,2.1484375t-3.41796875,0.8544921875q-2.783203125,0-4.58984375-1.46484375t-2.8076171875-3.80859375t-1.4404296875-5.2490234375t-0.5859375-5.810546875t-0.1953125-5.5419921875t-0.390625-4.443359375z M203.705078125,119.189453125q0-2.001953125,1.171875-3.4423828125t2.8564453125-2.34375t3.6865234375-1.3427734375t3.7109375-0.439453125q1.318359375,0,3.515625,0.390625t4.296875,1.171875t3.6376953125,2.05078125t1.5380859375,2.978515625q0,0.78125-0.5859375,1.3916015625t-1.220703125,0.6103515625q-1.318359375,0-2.392578125-0.8544921875t-2.2216796875-1.806640625t-2.5146484375-1.806640625t-3.076171875-0.8544921875t-3.1005859375,1.0986328125t-1.3916015625,2.9052734375q0,2.978515625,2.099609375,5.8349609375t4.6142578125,6.005859375t4.6142578125,6.6162109375t2.099609375,7.666015625q0,1.806640625-0.7568359375,3.0517578125t-2.001953125,2.0263671875t-2.8076171875,1.1962890625t-3.02734375,0.4150390625q-1.611328125,0-3.759765625-0.7568359375t-4.052734375-2.001953125t-3.1982421875-2.9052734375t-1.2939453125-3.466796875q0-0.87890625,1.2451171875-1.123046875t1.8310546875-0.244140625q0.29296875,0,0.9033203125,0.1953125t1.1962890625,0.439453125t1.0498046875,0.537109375t0.3662109375,0.634765625q0.48828125,0.5859375,1.4892578125,1.7333984375t2.001953125,1.85546875t1.7578125,0.5126953125t0.7568359375-2.197265625q0-3.80859375-2.05078125-7.0068359375t-4.4677734375-6.25t-4.4677734375-6.0546875t-2.05078125-6.4208984375z M236.11083984375,100.78125q0-0.68359375,1.46484375-1.171875t3.3203125-0.8056640625t3.5888671875-0.4638671875t2.3681640625-0.244140625q0-1.318359375,0.09765625-2.6611328125t0.537109375-2.392578125t1.3916015625-1.6845703125t2.6611328125-0.634765625q1.416015625,0,2.1484375,0.341796875t1.5625,1.416015625q0.1953125,0.5859375,0.1953125,1.123046875l0,1.6357421875t-0.09765625,1.6845703125q1.806640625-0.1953125,3.5888671875-0.4638671875t3.5888671875-0.2685546875q1.318359375,0,1.806640625,0.048828125t0.9765625,1.171875q0.390625,1.123046875-0.9521484375,1.708984375t-3.22265625,0.87890625t-3.7353515625,0.439453125t-2.24609375,0.146484375q-0.5859375,8.3984375-1.1962890625,16.650390625t-0.6103515625,16.748046875q0,3.80859375,0.244140625,7.861328125t1.3671875,7.666015625q0.29296875,1.123046875,0.9765625,2.099609375t0.68359375,2.099609375q0,0.68359375-0.537109375,1.07421875t-1.2939453125,0.6591796875t-1.513671875,0.3173828125t-1.2451171875,0.048828125q-3.076171875,0-4.6875-2.294921875t-2.3193359375-5.4931640625t-0.7568359375-6.5673828125t-0.048828125-5.46875q0-4.296875,0.1708984375-8.7890625t0.4150390625-8.88671875t0.68359375-8.59375t1.025390625-7.8125q-1.708984375,0.1953125-3.3447265625,0.439453125t-3.3447265625,0.244140625q-0.390625,0-1.0498046875-0.048828125t-1.2451171875-0.244140625t-1.0009765625-0.537109375t-0.4150390625-0.9765625z M273.4482421875,133.7890625q0-3.41796875,0.7568359375-8.056640625t2.5634765625-8.7890625t4.7607421875-7.0556640625t7.4462890625-2.9052734375q4.19921875,0,6.298828125,2.4169921875t2.099609375,6.5185546875q0,2.685546875-1.0009765625,5.8837890625t-2.8564453125,6.0546875t-4.39453125,4.7607421875t-5.6640625,1.904296875l-1.26953125-0.09765625q0,1.318359375,0.390625,3.5400390625t1.1474609375,4.4189453125t1.953125,3.857421875t2.9052734375,1.66015625q2.490234375,0,4.78515625-2.001953125t4.345703125-4.443359375t3.80859375-4.443359375t3.22265625-2.001953125q0.78125,0,1.611328125,0.244140625t0.927734375,1.3671875q0,0.68359375-0.3662109375,1.123046875t-0.6591796875,0.9765625q-1.513671875,2.587890625-3.2958984375,4.931640625t-4.0283203125,4.248046875t-4.9072265625,3.0029296875t-5.8837890625,1.0986328125q-4.19921875,0-6.982421875-1.4892578125t-4.4921875-4.00390625t-2.4658203125-5.810546875t-0.7568359375-6.9091796875z M282.1884765625,130.078125l1.3671875,1.220703125q0.9765625,0.87890625,1.953125,0.390625t1.7578125-1.7822265625t1.4404296875-3.1982421875t1.171875-3.90625t0.7568359375-3.90625t0.244140625-3.173828125l0-1.66015625t-0.146484375-1.7578125t-0.5126953125-1.3916015625t-1.1474609375-0.7080078125q-0.244140625-0.048828125-0.439453125-0.048828125q-1.66015625,0-2.83203125,2.099609375q-1.26953125,2.34375-2.05078125,5.6884765625t-1.123046875,6.8603515625t-0.439453125,5.2734375z M314.37451171875,119.5556640625q-0.1220703125-1.6357421875,0.1953125-3.0029296875t1.26953125-2.2216796875t3.0517578125-0.8544921875q0.48828125,0,1.1962890625,0.1220703125t1.3916015625,0.3173828125t1.1474609375,0.5859375t0.4638671875,1.07421875l0,5.517578125q1.904296875-2.197265625,4.150390625-3.1494140625t5.126953125-0.9521484375q2.197265625,0,4.345703125,1.0009765625t4.052734375,2.6611328125t3.2958984375,3.662109375t2.0263671875,4.00390625q0.390625-1.806640625,0.87890625-4.4189453125t1.4404296875-5.0048828125t2.5146484375-4.1015625t4.150390625-1.708984375q2.783203125,0,4.6875,2.001953125t3.1005859375,5.2001953125t1.806640625,7.1533203125t0.9033203125,7.8125t0.29296875,7.2021484375l0,5.2490234375q0,0.5859375-0.439453125,0.9521484375t-1.0986328125,0.5615234375t-1.3671875,0.244140625t-1.0986328125,0.048828125q-1.513671875,0-2.7587890625-0.4638671875t-1.2451171875-2.3681640625l0-4.39453125t-0.09765625-5.6884765625t-0.341796875-6.103515625t-0.634765625-5.5419921875t-1.0009765625-4.00390625t-1.4892578125-1.5625q-1.220703125,0-1.7578125,1.3671875t-0.9033203125,3.466796875t-0.5615234375,4.443359375t-0.537109375,4.443359375t-1.0986328125,3.4423828125t-2.0751953125,1.3427734375q-1.416015625,0-2.490234375-1.3427734375t-2.1240234375-3.3447265625t-2.099609375-4.296875t-2.3193359375-4.296875q-1.26953125-2.05078125-2.734375-3.3203125q-1.318359375-1.220703125-2.978515625-1.171875l-0.244140625,0q-2.197265625,0.09765625-3.4423828125,1.5869140625t-1.904296875,3.6376953125t-0.8056640625,4.6142578125t-0.146484375,4.3212890625q0,1.7578125,0.29296875,4.1015625q0.1953125,1.5625,0.1953125,2.978515625q0,0.732421875-0.048828125,1.416015625q-0.146484375,2.05078125-1.0986328125,3.4423828125t-3.5400390625,1.3916015625q-0.9765625,0-2.44140625-0.1953125t-1.953125-1.318359375q-1.123046875-2.001953125-1.708984375-5.0537109375t-0.87890625-6.298828125t-0.341796875-6.4453125t-0.048828125-5.4931640625q0-1.611328125-0.1220703125-3.2470703125z"/><path fill="#" d=""/></svg>
